HIERARCHY
ROOT Hips
{
  OFFSET 5.80788e-005 67.184 3.4734
  CHANNELS 6 Xposition Yposition Zposition Zrotation Xrotation Yrotation
  JOINT Chest
  {
    OFFSET 0 8.7983 -4.7612
    CHANNELS 3 Zrotation Xrotation Yrotation
    JOINT Chest2
    {
      OFFSET 0 8.0291 0.4195
      CHANNELS 3 Zrotation Xrotation Yrotation
      JOINT Chest3
      {
        OFFSET 0 9.9351 -2.2114
        CHANNELS 3 Zrotation Xrotation Yrotation
        JOINT Neck
        {
          OFFSET 0 22.3885 -0.4656
          CHANNELS 3 Zrotation Xrotation Yrotation
          JOINT Head
          {
            OFFSET -0.0001 12.643 3.4389
            CHANNELS 3 Zrotation Xrotation Yrotation
            End Site
            {
              OFFSET 0.0001 17.6655 0.5274
            }
          }
        }
        JOINT LeftCollar
        {
          OFFSET 2.2603 21.606 7.4023
          CHANNELS 3 Zrotation Xrotation Yrotation
          JOINT LeftShoulder
          {
            OFFSET 13.5163 -1.1332 -5.0146
            CHANNELS 3 Zrotation Xrotation Yrotation
            JOINT LeftElbow
            {
              OFFSET -0.0995 -28.05 -0.2431
              CHANNELS 3 Zrotation Xrotation Yrotation
              JOINT LeftWrist
              {
                OFFSET 0.0679 -23.3996 -0.1402
                CHANNELS 3 Zrotation Xrotation Yrotation
                JOINT LeftFinger1
                {
                  OFFSET 0.7932 -9.069 2.5189
                  CHANNELS 3 Zrotation Xrotation Yrotation
                  JOINT LeftFinger11
                  {
                    OFFSET -0.8272 -3.3923 0.5977
                    CHANNELS 3 Zrotation Xrotation Yrotation
                    JOINT LeftFinger12
                    {
                      OFFSET -0.5649 -2.3158 0.4082
                      CHANNELS 3 Zrotation Xrotation Yrotation
                      End Site
                      {
                        OFFSET -0.4919 -1.6479 0.2673
                      }
                    }
                  }
                }
                JOINT LeftFinger2
                {
                  OFFSET 0.9159 -9.2044 0.2193
                  CHANNELS 3 Zrotation Xrotation Yrotation
                  JOINT LeftFinger21
                  {
                    OFFSET 0.0117 -4.1944 -0.0248
                    CHANNELS 3 Zrotation Xrotation Yrotation
                    JOINT LeftFinger22
                    {
                      OFFSET 0.0071 -2.3249 -0.0142
                      CHANNELS 3 Zrotation Xrotation Yrotation
                      End Site
                      {
                        OFFSET -0.1475 -2.0882 0.0028
                      }
                    }
                  }
                }
                JOINT LeftFinger3
                {
                  OFFSET 0.6113 -8.7231 -2.0637
                  CHANNELS 3 Zrotation Xrotation Yrotation
                  JOINT LeftFinger31
                  {
                    OFFSET -0.1927 -3.8059 -0.2383
                    CHANNELS 3 Zrotation Xrotation Yrotation
                    JOINT LeftFinger32
                    {
                      OFFSET -0.1091 -2.1688 -0.1362
                      CHANNELS 3 Zrotation Xrotation Yrotation
                      End Site
                      {
                        OFFSET -0.2358 -1.9176 -0.0906
                      }
                    }
                  }
                }
                JOINT LeftFinger4
                {
                  OFFSET -0.6151 -8.0947 -3.5641
                  CHANNELS 3 Zrotation Xrotation Yrotation
                  JOINT LeftFinger41
                  {
                    OFFSET -0.4882 -2.341 -0.6462
                    CHANNELS 3 Zrotation Xrotation Yrotation
                    JOINT LeftFinger42
                    {
                      OFFSET -0.3575 -1.7167 -0.4742
                      CHANNELS 3 Zrotation Xrotation Yrotation
                      End Site
                      {
                        OFFSET -0.4187 -1.5237 -0.3496
                      }
                    }
                  }
                }
                JOINT LeftFinger0
                {
                  OFFSET -1.42 -1.8761 1.4223
                  CHANNELS 3 Zrotation Xrotation Yrotation
                  JOINT LeftFinger01
                  {
                    OFFSET -1.1471 -3.4929 2.6334
                    CHANNELS 3 Zrotation Xrotation Yrotation
                    JOINT LeftFinger02
                    {
                      OFFSET -0.823 -2.3 1.6571
                      CHANNELS 3 Zrotation Xrotation Yrotation
                      End Site
                      {
                        OFFSET -0.5822 -1.6914 1.1582
                      }
                    }
                  }
                }
              }
            }
          }
        }
        JOINT RightCollar
        {
          OFFSET -2.2603 21.606 7.4023
          CHANNELS 3 Zrotation Xrotation Yrotation
          JOINT RightShoulder
          {
            OFFSET -13.5187 -1.1334 -5.0155
            CHANNELS 3 Zrotation Xrotation Yrotation
            JOINT RightElbow
            {
              OFFSET 0.0994 -28.0499 -0.2431
              CHANNELS 3 Zrotation Xrotation Yrotation
              JOINT RightWrist
              {
                OFFSET -0.0679 -23.3996 -0.1402
                CHANNELS 3 Zrotation Xrotation Yrotation
                JOINT RightFinger1
                {
                  OFFSET -0.7932 -9.0691 2.5189
                  CHANNELS 3 Zrotation Xrotation Yrotation
                  JOINT RightFinger11
                  {
                    OFFSET 0.8272 -3.3923 0.5977
                    CHANNELS 3 Zrotation Xrotation Yrotation
                    JOINT RightFinger12
                    {
                      OFFSET 0.565 -2.3158 0.4082
                      CHANNELS 3 Zrotation Xrotation Yrotation
                      End Site
                      {
                        OFFSET 0.4919 -1.6479 0.2673
                      }
                    }
                  }
                }
                JOINT RightFinger2
                {
                  OFFSET -0.916 -9.2044 0.2193
                  CHANNELS 3 Zrotation Xrotation Yrotation
                  JOINT RightFinger21
                  {
                    OFFSET -0.0117 -4.1944 -0.0248
                    CHANNELS 3 Zrotation Xrotation Yrotation
                    JOINT RightFinger22
                    {
                      OFFSET -0.0071 -2.3249 -0.0142
                      CHANNELS 3 Zrotation Xrotation Yrotation
                      End Site
                      {
                        OFFSET 0.1475 -2.0882 0.0028
                      }
                    }
                  }
                }
                JOINT RightFinger3
                {
                  OFFSET -0.6113 -8.7231 -2.0637
                  CHANNELS 3 Zrotation Xrotation Yrotation
                  JOINT RightFinger31
                  {
                    OFFSET 0.1927 -3.8059 -0.2383
                    CHANNELS 3 Zrotation Xrotation Yrotation
                    JOINT RightFinger32
                    {
                      OFFSET 0.1091 -2.1688 -0.1362
                      CHANNELS 3 Zrotation Xrotation Yrotation
                      End Site
                      {
                        OFFSET 0.2358 -1.9176 -0.0906
                      }
                    }
                  }
                }
                JOINT RightFinger4
                {
                  OFFSET 0.6151 -8.0947 -3.564
                  CHANNELS 3 Zrotation Xrotation Yrotation
                  JOINT RightFinger41
                  {
                    OFFSET 0.4882 -2.341 -0.6462
                    CHANNELS 3 Zrotation Xrotation Yrotation
                    JOINT RightFinger42
                    {
                      OFFSET 0.3574 -1.7166 -0.4742
                      CHANNELS 3 Zrotation Xrotation Yrotation
                      End Site
                      {
                        OFFSET 0.4187 -1.5237 -0.3496
                      }
                    }
                  }
                }
                JOINT RightFinger0
                {
                  OFFSET 1.4199 -1.8761 1.4221
                  CHANNELS 3 Zrotation Xrotation Yrotation
                  JOINT RightFinger01
                  {
                    OFFSET 1.1472 -3.4929 2.6336
                    CHANNELS 3 Zrotation Xrotation Yrotation
                    JOINT RightFinger02
                    {
                      OFFSET 0.8229 -2.3 1.6571
                      CHANNELS 3 Zrotation Xrotation Yrotation
                      End Site
                      {
                        OFFSET 0.5822 -1.6914 1.1582
                      }
                    }
                  }
                }
              }
            }
          }
        }
      }
    }
  }
  JOINT RightHip
  {
    OFFSET -9.412 3.9771 -0.7758
    CHANNELS 3 Zrotation Xrotation Yrotation
    JOINT RightKnee
    {
      OFFSET -0.7531 -40.938 0
      CHANNELS 3 Zrotation Xrotation Yrotation
      JOINT RightAnkle
      {
        OFFSET 0 -40.1986 0
        CHANNELS 3 Zrotation Xrotation Yrotation
        JOINT RightToe
        {
          OFFSET 0 -4.4182 9.239
          CHANNELS 3 Zrotation Xrotation Yrotation
          End Site
          {
            OFFSET 0 0 6.1981
          }
        }
      }
    }
  }
  JOINT LeftHip
  {
    OFFSET 9.4119 3.9773 -0.7758
    CHANNELS 3 Zrotation Xrotation Yrotation
    JOINT LeftKnee
    {
      OFFSET 0.7532 -40.9383 0
      CHANNELS 3 Zrotation Xrotation Yrotation
      JOINT LeftAnkle
      {
        OFFSET 0 -40.1986 0
        CHANNELS 3 Zrotation Xrotation Yrotation
        JOINT LeftToe
        {
          OFFSET 0 -4.4182 9.239
          CHANNELS 3 Zrotation Xrotation Yrotation
          End Site
          {
            OFFSET 0 0 6.1981
          }
        }
      }
    }
  }
}
MOTION
Frames:	4
Frame Time:	0.0333333
5.80788e-005 67.184 3.4734 0 0 -0 0 0 -0 0 0 -0 0 0 -0 0 0 -0 0 0 -0 0 0 -12.5014 88.1196 14.2451 10.6914 -0.00160068 -0.00239207 0.000740045 -8.4365e-005 7.00714e-005 -9.52055e-007 9.93923e-017 -1.98785e-016 -1.59028e-015 9.93923e-017 -5.96354e-016 -1.59028e-015 -9.93923e-017 -5.96354e-016 -1.59028e-015 9.93923e-017 -1.98785e-016 -1.59028e-015 -0.0128176 0.00232552 8.52707e-005 9.93923e-017 5.96354e-016 -0 9.93923e-017 -1.98785e-016 -1.59028e-015 -0.0160551 0.00299681 0.000857156 -2.48481e-016 0 3.18055e-015 9.93923e-017 -1.98785e-016 -1.59028e-015 -0.0125865 0.0031206 0.00282719 0 1.98785e-016 -0 9.93923e-017 -1.98785e-016 -1.59028e-015 9.93923e-017 -5.96354e-016 -1.59028e-015 -9.93923e-017 -5.96354e-016 -1.59028e-015 -0.865644 0.16582 7.03859 -88.0329 10.2057 -10.5567 0.0015593 -0.00248883 -0.000788628 7.87605e-005 4.10553e-005 1.24965e-005 -3.97569e-016 -7.95139e-016 3.18055e-015 -1.98785e-016 -3.97569e-016 3.18055e-015 -1.98785e-016 0 3.18055e-015 -3.97569e-016 -7.95139e-016 3.18055e-015 0.0129473 0.00231697 -8.70038e-005 9.93923e-017 -7.95139e-016 1.59028e-015 -3.97569e-016 -7.95139e-016 3.18055e-015 0.0163314 0.00303369 -0.000872333 3.97569e-016 7.95139e-016 -3.18055e-015 -3.97569e-016 -7.95139e-016 3.18055e-015 0.0145763 0.00367772 -0.00326275 9.93923e-017 -3.97569e-016 -0 -3.97569e-016 -7.95139e-016 3.18055e-015 -1.98785e-016 -3.97569e-016 3.18055e-015 -1.98785e-016 0 3.18055e-015 3.42485 1.36937 -0.0640303 0.000136572 0.69354 0.00145564 -3.42573 -2.06297 -0.0607933 -3.19502e-024 0 -1.48106e-024 -3.42498 1.36123 0.0639712 -6.769e-005 0.712612 -0.0012277 3.42582 -2.07388 0.0612819 2.55305e-023 0 -2.31416e-026 
22.1726 -1.62862 12.8049 -36.9626 -84.9984 -151.849 -7.16754 0.709577 3.52523 -14.366 0.972681 7.11185 -14.366 0.972684 7.11187 -0.722602 -1.9951 -0.0213404 -10.8813 -26.6639 -2.678 -22.8698 1.9615 -25.7019 73.5694 -7.50175 9.97926 -39.5691 -24.4004 -16.8764 -7.56706 0.517567 22.8541 3.18055e-015 0 -0 -3.18055e-015 -4.36756e-006 -3.18055e-015 3.53113e-031 6.36111e-015 -3.18055e-015 3.18055e-015 0 -0 -0.0127931 0.0023164 8.7466e-005 -3.18055e-015 -3.18055e-015 3.18055e-015 3.18055e-015 0 -0 -0.0160575 0.00300155 0.000864424 -6.36111e-015 -3.18055e-015 3.18055e-015 3.18055e-015 0 -0 -0.0125754 0.00312659 0.00281966 3.96028e-007 -3.87488e-006 1.15437e-005 3.18055e-015 0 -0 -3.18055e-015 -4.36756e-006 -3.18055e-015 3.53113e-031 6.36111e-015 -3.18055e-015 0.32153 -0.604434 21.1308 -75.7273 -38.4514 -14.2256 -4.22615 -46.6325 -11.6603 0.773556 4.92102 -2.01175 7.95139e-016 -1.64619e-015 -9.93923e-017 -2.81257e-033 -1.62134e-015 -9.93923e-017 7.95139e-016 -1.60891e-015 -9.93923e-017 7.95139e-016 -1.64619e-015 -9.93923e-017 0.0129718 0.0024364 -8.57878e-005 4.55733e-007 -5.64848e-005 1.02858e-005 7.95139e-016 -1.64619e-015 -9.93923e-017 0.0163503 0.0031672 -0.000877186 -1.59028e-015 -4.84538e-016 9.93923e-017 7.95139e-016 -1.64619e-015 -9.93923e-017 0.0145716 0.00390044 -0.00325105 2.40308e-033 -1.38528e-015 9.93923e-017 7.95139e-016 -1.64619e-015 -9.93923e-017 -2.81257e-033 -1.62134e-015 -9.93923e-017 7.95139e-016 -1.60891e-015 -9.93923e-017 -6.55712 10.2421 -1.1321 -18.1431 57.6588 12.0329 -6.92384 9.37526 -1.65391 7.43621e-006 -1.52552e-006 -1.07936e-006 21.821 -0.756783 41.3162 -69.1152 35.1515 65.4097 8.79456 9.43952 1.66583 1.27266e-005 -9.12288e-006 -5.11566e-006 
22.1726 -1.62862 12.8049 -36.9626 -84.9984 -151.849 -7.16754 0.709577 3.52523 -14.366 0.972681 7.11185 -14.366 0.972684 7.11187 -0.816679 -1.38017 0.422201 -10.8812 -26.664 -2.67801 -22.8698 1.9615 -25.7019 73.6072 -7.21969 10.4826 -39.5668 -24.3992 -16.8753 -8.07434 0.184178 22.9102 2.47668e-006 -1.26565e-006 -2.24243e-007 -4.2034e-006 -2.71769e-006 2.3583e-006 -6.36111e-015 3.18055e-015 -3.18055e-015 2.47668e-006 -1.26565e-006 -2.24243e-007 -0.0128008 0.00231844 9.14076e-005 -3.18055e-015 -6.36111e-015 6.36111e-015 2.47668e-006 -1.26565e-006 -2.24243e-007 -0.0160742 0.00299238 0.000859111 -1.05934e-030 -9.54166e-015 -6.36111e-015 2.47668e-006 -1.26565e-006 -2.24243e-007 -0.012629 0.00313337 0.00283048 -2.47721e-006 1.37616e-006 2.24223e-007 2.47668e-006 -1.26565e-006 -2.24243e-007 -4.2034e-006 -2.71769e-006 2.3583e-006 -6.36111e-015 3.18055e-015 -3.18055e-015 0.32153 -0.604434 21.1308 -75.7273 -38.4514 -14.2256 -4.22615 -46.6325 -11.6603 0.773556 4.92102 -2.01175 7.95139e-016 -1.64619e-015 -9.93923e-017 -2.81257e-033 -1.62134e-015 -9.93923e-017 7.95139e-016 -1.60891e-015 -9.93923e-017 7.95139e-016 -1.64619e-015 -9.93923e-017 0.0129718 0.0024364 -8.57878e-005 4.55733e-007 -5.64848e-005 1.02858e-005 7.95139e-016 -1.64619e-015 -9.93923e-017 0.0163503 0.0031672 -0.000877186 -1.59028e-015 -4.84538e-016 9.93923e-017 7.95139e-016 -1.64619e-015 -9.93923e-017 0.0145716 0.00390044 -0.00325105 2.40308e-033 -1.38528e-015 9.93923e-017 7.95139e-016 -1.64619e-015 -9.93923e-017 -2.81257e-033 -1.62134e-015 -9.93923e-017 7.95139e-016 -1.60891e-015 -9.93923e-017 -6.55712 10.2421 -1.1321 -18.1431 57.6588 12.0329 -6.92384 9.37526 -1.65391 7.43621e-006 -1.52552e-006 -1.07936e-006 21.821 -0.756783 41.3162 -69.1152 35.1515 65.4097 8.79456 9.43952 1.66583 1.27266e-005 -9.12288e-006 -5.11566e-006 
22.1726 -1.62862 12.8049 -36.9626 -84.9984 -151.849 -7.16754 0.709577 3.52523 -14.366 0.972681 7.11185 -14.366 0.972684 7.11187 -0.915781 -0.764123 0.867999 -10.8812 -26.664 -2.678 -22.8698 1.9615 -25.7019 73.644 -6.93492 10.9861 -39.567 -24.3993 -16.8754 -8.58192 -0.150132 22.9635 -6.36111e-015 9.54166e-015 3.18055e-015 -6.36111e-015 -9.54166e-015 -9.54166e-015 1.27222e-014 6.36111e-015 -6.36111e-015 -6.36111e-015 9.54166e-015 3.18055e-015 -0.0128099 0.00232889 8.58713e-005 -3.18055e-015 6.36111e-015 3.18055e-015 -6.36111e-015 9.54166e-015 3.18055e-015 -0.0160626 0.00300234 0.00084288 -9.54166e-015 3.18055e-015 3.18055e-015 -6.36111e-015 9.54166e-015 3.18055e-015 -0.012564 0.00311653 0.0028131 3.18055e-015 -6.36111e-015 -3.18055e-015 -6.36111e-015 9.54166e-015 3.18055e-015 -6.36111e-015 -9.54166e-015 -9.54166e-015 1.27222e-014 6.36111e-015 -6.36111e-015 0.32153 -0.604434 21.1308 -75.7273 -38.4514 -14.2256 -4.22615 -46.6325 -11.6603 0.773556 4.92102 -2.01175 7.95139e-016 -1.64619e-015 -9.93923e-017 -2.81257e-033 -1.62134e-015 -9.93923e-017 7.95139e-016 -1.60891e-015 -9.93923e-017 7.95139e-016 -1.64619e-015 -9.93923e-017 0.0129718 0.0024364 -8.57878e-005 4.55733e-007 -5.64848e-005 1.02858e-005 7.95139e-016 -1.64619e-015 -9.93923e-017 0.0163503 0.0031672 -0.000877186 -1.59028e-015 -4.84538e-016 9.93923e-017 7.95139e-016 -1.64619e-015 -9.93923e-017 0.0145716 0.00390044 -0.00325105 2.40308e-033 -1.38528e-015 9.93923e-017 7.95139e-016 -1.64619e-015 -9.93923e-017 -2.81257e-033 -1.62134e-015 -9.93923e-017 7.95139e-016 -1.60891e-015 -9.93923e-017 -6.55712 10.2421 -1.1321 -18.1431 57.6588 12.0329 -6.92384 9.37526 -1.65391 7.43621e-006 -1.52552e-006 -1.07936e-006 21.821 -0.756783 41.3162 -69.1152 35.1515 65.4097 8.79456 9.43952 1.66583 1.27266e-005 -9.12288e-006 -5.11566e-006 
